<svg width="38" height="38" viewBox="0 0 38 38" fill="none" xmlns="http://www.w3.org/2000/svg">
<path d="M19 38C29.4934 38 38 29.4934 38 19C38 8.50659 29.4934 0 19 0C8.50659 0 0 8.50659 0 19C0 29.4934 8.50659 38 19 38Z" fill="url(#paint0_linear)"/>
<path d="M18.9969 29.1232C17.0137 29.1232 15.2365 28.098 14.2469 26.3801L10.0312 19.0809C9.04167 17.363 9.04167 15.3126 10.0312 13.5947C11.0208 11.8768 12.7981 10.8516 14.7812 10.8516H23.2085C25.1917 10.8516 26.969 11.8768 27.9585 13.5947C28.9521 15.3126 28.9521 17.363 27.9585 19.0809L23.7469 26.3801C22.7573 28.098 20.98 29.1232 18.9969 29.1232Z" fill="url(#paint1_linear)"/>
<path d="M23.2101 13.1221C25.688 13.1221 27.2357 15.8059 25.9967 17.9513L23.8909 21.6009L21.7851 25.2505C21.1676 26.3232 20.083 26.8615 18.9984 26.8615C17.9138 26.8615 16.8292 26.3232 16.2117 25.2505L14.1059 21.6009L12.0001 17.9513C10.7611 15.8059 12.3088 13.1221 14.7867 13.1221H18.9984H23.2101ZM23.2101 8.58984H18.9984H14.7867C13.3736 8.58984 11.9961 8.96984 10.7967 9.69026C9.67256 10.3632 8.73048 11.3251 8.07339 12.4651C7.41631 13.6051 7.05214 14.9034 7.03235 16.2096C7.0086 17.6069 7.36881 18.9923 8.07339 20.2155L10.1792 23.8651L12.2851 27.5146C12.9896 28.7378 14.0109 29.7432 15.234 30.4201C16.378 31.0534 17.6803 31.3898 18.9984 31.3898C20.3165 31.3898 21.6188 31.0534 22.7628 30.4201C23.9859 29.7432 25.0032 28.7378 25.7117 27.5146L27.8176 23.8651L29.9234 20.2155C30.628 18.9923 30.9882 17.6069 30.9644 16.2096C30.9407 14.8994 30.5805 13.6051 29.9234 12.4651C29.2663 11.3251 28.3242 10.3632 27.2001 9.69026C26.0046 8.96984 24.6232 8.58984 23.2101 8.58984Z" fill="white"/>
<defs>
<linearGradient id="paint0_linear" x1="10.5483" y1="2.61404" x2="26.9598" y2="34.4323" gradientUnits="userSpaceOnUse">
<stop stop-color="#00CBD3"/>
<stop offset="0.5" stop-color="#019FE5"/>
<stop offset="1" stop-color="#027EF3"/>
</linearGradient>
<linearGradient id="paint1_linear" x1="26.1193" y1="26.3672" x2="11.7234" y2="8.05686" gradientUnits="userSpaceOnUse">
<stop stop-color="#00CBD3"/>
<stop offset="0.5" stop-color="#019FE5"/>
<stop offset="1" stop-color="#027EF3"/>
</linearGradient>
</defs>
</svg>
